#Comment line ignore any data following # character 
#Hierarchical Translation and Rotation (.htr) file 
[Header]	
#Header keywords are followed by a single value 
FileType HTR		#Single word string
DataType HTRS		#Translation followed by rotation and scale data
FileVersion 1		#integer
NumSegments 84		#integer
NumFrames 2		#integer
DataFrameRate 30		#integer, data frame rate in this file
EulerRotationOrder ZYX
CalibrationUnits mm
RotationUnits Degrees
GlobalAxisofGravity Y
BoneLengthAxis Y
ScaleFactor 1.00
[SegmentNames&Hierarchy]
#CHILD	PARENT
MASTER GLOBAL
root MASTER
chest root
L_mid_tent01 root
R_mid_tent01 root
spine01 root
Bip01_Neck chest
L_humerus chest
R_humerus chest
weapon_bone chest
Bip01_Head Bip01_Neck
eye_left_bone Bip01_Head
eye_right_bone Bip01_Head
L_forearm L_humerus
L_front_hand L_forearm
L_weapon_bone L_forearm
L_front_hand01_01 L_front_hand
L_front_hand02_01 L_front_hand
L_front_hand03_01 L_front_hand
L_front_hand01_02 L_front_hand01_01
L_front_hand02_02 L_front_hand02_01
L_front_hand03_02 L_front_hand03_01
R_forearm R_humerus
R_front_hand R_forearm
R_weapon_bone R_forearm
R_front_hand01_01 R_front_hand
R_front_hand02_01 R_front_hand
R_front_hand03_01 R_front_hand
R_front_hand01_02 R_front_hand01_01
R_front_hand02_02 R_front_hand02_01
R_front_hand03_02 R_front_hand03_01
null_rope01_connect L_mid_tent01
Rope1_Seg01 null_rope01_connect
Rope1_Seg02 Rope1_Seg01
Rope1_Seg03 Rope1_Seg02
Rope1_Seg04 Rope1_Seg03
Rope1_Seg05 Rope1_Seg04
Rope1_Seg06 Rope1_Seg05
Rope1_Seg07 Rope1_Seg06
Rope1_Seg09 Rope1_Seg07
L_mid_hand01 Rope1_Seg09
L_mid_hand02 Rope1_Seg09
L_mid_hand03 Rope1_Seg09
null_rope02_connect R_mid_tent01
Rope2_Seg01 null_rope02_connect
Rope2_Seg02 Rope2_Seg01
Rope2_Seg03 Rope2_Seg02
Rope2_Seg04 Rope2_Seg03
Rope2_Seg05 Rope2_Seg04
Rope2_Seg06 Rope2_Seg05
Rope2_Seg07 Rope2_Seg06
Rope2_Seg09 Rope2_Seg07
R_mid_hand01 Rope2_Seg09
R_mid_hand02 Rope2_Seg09
R_mid_hand03 Rope2_Seg09
spine02 spine01
spine03 spine02
pelvis spine03
null_rope03_connect pelvis
null_rope04_connect pelvis
Rope3_Seg01 null_rope03_connect
Rope3_Seg02 Rope3_Seg01
Rope3_Seg03 Rope3_Seg02
Rope3_Seg04 Rope3_Seg03
Rope3_Seg05 Rope3_Seg04
Rope3_Seg06 Rope3_Seg05
Rope3_Seg07 Rope3_Seg06
Rope3_Seg08 Rope3_Seg07
Rope3_Seg09 Rope3_Seg08
R_rear_hand01 Rope3_Seg09
R_rear_hand02 Rope3_Seg09
R_rear_hand03 Rope3_Seg09
Rope4_Seg01 null_rope04_connect
Rope4_Seg02 Rope4_Seg01
Rope4_Seg03 Rope4_Seg02
Rope4_Seg04 Rope4_Seg03
Rope4_Seg05 Rope4_Seg04
Rope4_Seg06 Rope4_Seg05
Rope4_Seg07 Rope4_Seg06
Rope4_Seg08 Rope4_Seg07
Rope4_Seg09 Rope4_Seg08
L_rear_hand01 Rope4_Seg09
L_rear_hand02 Rope4_Seg09
L_rear_hand03 Rope4_Seg09
[BasePosition]
#SegmentName Tx, Ty, Tz, Rx, Ry, Rz, BoneLength
MASTER 0.000000 0.000000 0.000000 -90.000000 0.000000 0.000000 10.000000 
root 0.000000 0.000000 0.000000 0.000000 0.000000 0.000000 10.000000 
chest 0.000000 0.000000 0.000000 0.000000 0.000000 0.000000 10.000000 
L_mid_tent01 0.000000 0.000000 0.000000 0.000000 0.000000 0.000000 10.000000 
R_mid_tent01 0.000000 0.000000 0.000000 0.000000 0.000000 0.000000 10.000000 
spine01 0.000000 0.000000 0.000000 0.000000 0.000000 0.000000 10.000000 
Bip01_Neck 0.000000 0.000000 0.000000 0.000000 0.000000 0.000000 10.000000 
L_humerus 0.000000 0.000000 0.000000 0.000000 0.000000 0.000000 10.000000 
R_humerus 0.000000 0.000000 0.000000 0.000000 0.000000 0.000000 10.000000 
weapon_bone 0.000000 0.000000 0.000000 0.000000 0.000000 0.000000 10.000000 
Bip01_Head 0.000000 0.000000 0.000000 0.000000 0.000000 0.000000 10.000000 
eye_left_bone 0.000000 0.000000 0.000000 0.000000 0.000000 0.000000 10.000000 
eye_right_bone 0.000000 0.000000 0.000000 0.000000 0.000000 0.000000 10.000000 
L_forearm 0.000000 0.000000 0.000000 0.000000 0.000000 0.000000 10.000000 
L_front_hand 0.000000 0.000000 0.000000 0.000000 0.000000 0.000000 10.000000 
L_weapon_bone 0.000000 0.000000 0.000000 0.000000 0.000000 0.000000 10.000000 
L_front_hand01_01 0.000000 0.000000 0.000000 0.000000 0.000000 0.000000 10.000000 
L_front_hand02_01 0.000000 0.000000 0.000000 0.000000 0.000000 0.000000 10.000000 
L_front_hand03_01 0.000000 0.000000 0.000000 0.000000 0.000000 0.000000 10.000000 
L_front_hand01_02 0.000000 0.000000 0.000000 0.000000 0.000000 0.000000 10.000000 
L_front_hand02_02 0.000000 0.000000 0.000000 0.000000 0.000000 0.000000 10.000000 
L_front_hand03_02 0.000000 0.000000 0.000000 0.000000 0.000000 0.000000 10.000000 
R_forearm 0.000000 0.000000 0.000000 0.000000 0.000000 0.000000 10.000000 
R_front_hand 0.000000 0.000000 0.000000 0.000000 0.000000 0.000000 10.000000 
R_weapon_bone 0.000000 0.000000 0.000000 0.000000 0.000000 0.000000 10.000000 
R_front_hand01_01 0.000000 0.000000 0.000000 0.000000 0.000000 0.000000 10.000000 
R_front_hand02_01 0.000000 0.000000 0.000000 0.000000 0.000000 0.000000 10.000000 
R_front_hand03_01 0.000000 0.000000 0.000000 0.000000 0.000000 0.000000 10.000000 
R_front_hand01_02 0.000000 0.000000 0.000000 0.000000 0.000000 0.000000 10.000000 
R_front_hand02_02 0.000000 0.000000 0.000000 0.000000 0.000000 0.000000 10.000000 
R_front_hand03_02 0.000000 0.000000 0.000000 0.000000 0.000000 0.000000 10.000000 
null_rope01_connect 0.000000 0.000000 0.000000 0.000000 0.000000 0.000000 10.000000 
Rope1_Seg01 0.000000 0.000000 0.000000 0.000000 0.000000 0.000000 10.000000 
Rope1_Seg02 0.000000 0.000000 0.000000 0.000000 0.000000 0.000000 10.000000 
Rope1_Seg03 0.000000 0.000000 0.000000 0.000000 0.000000 0.000000 10.000000 
Rope1_Seg04 0.000000 0.000000 0.000000 0.000000 0.000000 0.000000 10.000000 
Rope1_Seg05 0.000000 0.000000 0.000000 0.000000 0.000000 0.000000 10.000000 
Rope1_Seg06 0.000000 0.000000 0.000000 0.000000 0.000000 0.000000 10.000000 
Rope1_Seg07 0.000000 0.000000 0.000000 0.000000 0.000000 0.000000 10.000000 
Rope1_Seg09 0.000000 0.000000 0.000000 0.000000 0.000000 0.000000 10.000000 
L_mid_hand01 0.000000 0.000000 0.000000 0.000000 0.000000 0.000000 10.000000 
L_mid_hand02 0.000000 0.000000 0.000000 0.000000 0.000000 0.000000 10.000000 
L_mid_hand03 0.000000 0.000000 0.000000 0.000000 0.000000 0.000000 10.000000 
null_rope02_connect 0.000000 0.000000 0.000000 0.000000 0.000000 0.000000 10.000000 
Rope2_Seg01 0.000000 0.000000 0.000000 0.000000 0.000000 0.000000 10.000000 
Rope2_Seg02 0.000000 0.000000 0.000000 0.000000 0.000000 0.000000 10.000000 
Rope2_Seg03 0.000000 0.000000 0.000000 0.000000 0.000000 0.000000 10.000000 
Rope2_Seg04 0.000000 0.000000 0.000000 0.000000 0.000000 0.000000 10.000000 
Rope2_Seg05 0.000000 0.000000 0.000000 0.000000 0.000000 0.000000 10.000000 
Rope2_Seg06 0.000000 0.000000 0.000000 0.000000 0.000000 0.000000 10.000000 
Rope2_Seg07 0.000000 0.000000 0.000000 0.000000 0.000000 0.000000 10.000000 
Rope2_Seg09 0.000000 0.000000 0.000000 0.000000 0.000000 0.000000 10.000000 
R_mid_hand01 0.000000 0.000000 0.000000 0.000000 0.000000 0.000000 10.000000 
R_mid_hand02 0.000000 0.000000 0.000000 0.000000 0.000000 0.000000 10.000000 
R_mid_hand03 0.000000 0.000000 0.000000 0.000000 0.000000 0.000000 10.000000 
spine02 0.000000 0.000000 0.000000 0.000000 0.000000 0.000000 10.000000 
spine03 0.000000 0.000000 0.000000 0.000000 0.000000 0.000000 10.000000 
pelvis 0.000000 0.000000 0.000000 0.000000 0.000000 0.000000 10.000000 
null_rope03_connect 0.000000 0.000000 0.000000 0.000000 0.000000 0.000000 10.000000 
null_rope04_connect 0.000000 0.000000 0.000000 0.000000 0.000000 0.000000 10.000000 
Rope3_Seg01 0.000000 0.000000 0.000000 0.000000 0.000000 0.000000 10.000000 
Rope3_Seg02 0.000000 0.000000 0.000000 0.000000 0.000000 0.000000 10.000000 
Rope3_Seg03 0.000000 0.000000 0.000000 0.000000 0.000000 0.000000 10.000000 
Rope3_Seg04 0.000000 0.000000 0.000000 0.000000 0.000000 0.000000 10.000000 
Rope3_Seg05 0.000000 0.000000 0.000000 0.000000 0.000000 0.000000 10.000000 
Rope3_Seg06 0.000000 0.000000 0.000000 0.000000 0.000000 0.000000 10.000000 
Rope3_Seg07 0.000000 0.000000 0.000000 0.000000 0.000000 0.000000 10.000000 
Rope3_Seg08 0.000000 0.000000 0.000000 0.000000 0.000000 0.000000 10.000000 
Rope3_Seg09 0.000000 0.000000 0.000000 0.000000 0.000000 0.000000 10.000000 
R_rear_hand01 0.000000 0.000000 0.000000 0.000000 0.000000 0.000000 10.000000 
R_rear_hand02 0.000000 0.000000 0.000000 0.000000 0.000000 0.000000 10.000000 
R_rear_hand03 0.000000 0.000000 0.000000 0.000000 0.000000 0.000000 10.000000 
Rope4_Seg01 0.000000 0.000000 0.000000 0.000000 0.000000 0.000000 10.000000 
Rope4_Seg02 0.000000 0.000000 0.000000 0.000000 0.000000 0.000000 10.000000 
Rope4_Seg03 0.000000 0.000000 0.000000 0.000000 0.000000 0.000000 10.000000 
Rope4_Seg04 0.000000 0.000000 0.000000 0.000000 0.000000 0.000000 10.000000 
Rope4_Seg05 0.000000 0.000000 0.000000 0.000000 0.000000 0.000000 10.000000 
Rope4_Seg06 0.000000 0.000000 0.000000 0.000000 0.000000 0.000000 10.000000 
Rope4_Seg07 0.000000 0.000000 0.000000 0.000000 0.000000 0.000000 10.000000 
Rope4_Seg08 0.000000 0.000000 0.000000 0.000000 0.000000 0.000000 10.000000 
Rope4_Seg09 0.000000 0.000000 0.000000 0.000000 0.000000 0.000000 10.000000 
L_rear_hand01 0.000000 0.000000 0.000000 0.000000 0.000000 0.000000 10.000000 
L_rear_hand02 0.000000 0.000000 0.000000 0.000000 0.000000 0.000000 10.000000 
L_rear_hand03 0.000000 0.000000 0.000000 0.000000 0.000000 0.000000 10.000000 
#Beginning of Data. Separated by tabs
#Fr	Tx	Ty	Tz	Rx	Ry	Rz	SF
[MASTER]
2 0.000000 0.000000 0.000000 0.001660 0.001660 0.001660 0.000000
3 0.000000 0.000000 0.000000 0.001660 0.001660 0.001660 0.000000
[root]
2 -15.001678 8.544188 1447.476074 -91.728912 -11.584501 -89.471634 1447.578979
3 -11.423285 6.479579 1445.226318 -91.728889 -11.584497 -89.471619 1445.286011
[chest]
2 -84.512650 -34.090519 0.000000 -2.170494 -0.006436 168.239609 91.129311
3 -84.512650 -34.090519 0.000000 -2.170494 -0.006436 168.239609 91.129311
[L_mid_tent01]
2 27.299511 22.177458 -249.918259 -20.661392 12.026042 12.983023 252.381134
3 27.299511 22.177458 -249.918259 -20.661392 12.026043 12.983022 252.381134
[R_mid_tent01]
2 23.228794 24.509907 226.238495 -165.192200 -17.956034 24.056786 228.744751
3 23.228794 24.509907 226.238495 -165.192200 -17.956036 24.056787 228.744751
[spine01]
2 -0.361383 -0.195265 0.000000 -0.000001 -0.000007 22.052340 0.410763
3 -0.361383 -0.195265 0.000000 -0.000001 -0.000007 22.052340 0.410763
[Bip01_Neck]
2 165.484543 71.581718 0.000119 175.896118 1.177290 24.871183 180.302734
3 165.484543 71.581718 0.000119 175.896118 1.177290 24.871183 180.302734
[L_humerus]
2 -13.983130 -135.272980 -120.471481 -5.480131 68.873390 84.573479 181.680161
3 -13.983130 -135.272980 -120.471481 -5.480138 68.873383 84.573456 181.680161
[R_humerus]
2 -13.983309 -135.273102 125.287651 27.897171 -69.888802 67.752304 184.909012
3 -13.983309 -135.273102 125.287651 27.897165 -69.888802 67.752319 184.909012
[weapon_bone]
2 235.964890 -300.705902 0.000000 0.000000 -89.951546 -128.212341 382.234833
3 235.964890 -300.705902 0.000000 0.000000 -89.951546 -128.212341 382.234833
[Bip01_Head]
2 193.865707 99.525291 7.890739 1.727521 4.534425 -43.429157 218.062973
3 193.865707 99.525291 7.890739 1.727521 4.534425 -43.429157 218.062973
[eye_left_bone]
2 -24.626970 125.451866 -64.772606 0.000000 -90.000000 -99.840431 143.318359
3 -24.626970 125.451866 -64.772606 0.000000 -90.000000 -99.840431 143.318359
[eye_right_bone]
2 -24.626970 125.451866 64.327362 0.000000 -89.980217 80.156387 143.117676
3 -24.626970 125.451866 64.327362 0.000000 -89.972023 80.156380 143.117676
[L_forearm]
2 322.776093 0.000000 -0.000119 0.000396 -0.002314 -109.419983 322.776093
3 322.776093 0.000000 -0.000119 0.000396 -0.002314 -109.419975 322.776093
[L_front_hand]
2 241.149185 -0.042021 -3.300071 -179.659958 -2.242151 -0.019832 241.171753
3 241.149185 -0.042021 -3.300071 -179.659958 -2.242151 -0.019832 241.171753
[L_weapon_bone]
2 156.183838 0.000000 0.000000 0.000014 0.000007 0.000001 156.183838
3 156.183838 0.000000 0.000000 0.000014 0.000007 0.000001 156.183838
[L_front_hand01_01]
2 86.095154 20.947098 -0.655860 0.009334 -0.601092 36.981674 88.609184
3 86.095154 20.947098 -0.655860 -0.189114 -0.570916 56.183815 88.609184
[L_front_hand02_01]
2 86.935165 -11.437475 24.513514 122.612114 -32.906910 -19.513861 91.046425
3 86.935165 -11.437475 24.513514 132.766769 -48.211834 -34.940823 91.046425
[L_front_hand03_01]
2 86.637497 -14.123976 -20.424902 -123.772591 31.414314 -21.886156 90.126129
3 86.637497 -14.123976 -20.424902 -133.577164 46.513027 -37.288937 90.126129
[L_front_hand01_02]
2 71.020905 -0.000179 0.000030 0.000334 -0.002323 -106.379684 71.020905
3 71.020905 -0.000179 0.000030 0.000334 -0.002323 -106.379684 71.020905
[L_front_hand02_02]
2 71.020927 -0.000119 0.000060 0.000334 -0.002323 -106.379684 71.020927
3 71.020927 -0.000119 0.000060 0.000334 -0.002323 -106.379684 71.020927
[L_front_hand03_02]
2 71.020905 -0.000060 0.000060 0.000334 -0.002323 -106.379684 71.020905
3 71.020905 -0.000060 0.000060 0.000334 -0.002323 -106.379684 71.020905
[R_forearm]
2 322.776428 -0.000060 0.000030 0.202103 0.065158 -108.062805 322.776428
3 322.776428 -0.000060 0.000030 0.202103 0.065158 -108.062805 322.776428
[R_front_hand]
2 238.847015 -0.006795 2.210259 -0.270529 1.703932 2.322530 238.857239
3 238.847015 -0.006795 2.210259 -0.270529 1.703932 2.322530 238.857239
[R_weapon_bone]
2 155.664093 0.002503 -0.000030 0.003487 0.001180 -90.988930 155.664078
3 155.664093 0.002503 -0.000030 0.003487 0.001180 -90.988930 155.664078
[R_front_hand01_01]
2 87.624611 14.231146 22.918642 -154.633499 -59.950619 61.746044 91.683487
3 87.624611 14.231146 22.918642 -154.633499 -59.950619 61.746044 91.683487
[R_front_hand02_01]
2 89.356956 14.367283 -19.491137 154.602661 58.302849 63.744389 92.579636
3 89.356956 14.367283 -19.491137 154.602661 58.302849 63.744389 92.579636
[R_front_hand03_01]
2 87.286232 -22.307278 -0.143439 0.162155 -0.423168 -75.767906 90.091743
3 87.286232 -22.307278 -0.143439 0.162155 -0.423168 -75.767906 90.091743
[R_front_hand01_02]
2 71.020905 0.000060 0.000119 0.002323 -0.000334 106.381721 71.020905
3 71.020905 0.000060 0.000119 0.002323 -0.000334 106.381714 71.020905
[R_front_hand02_02]
2 71.020844 -0.000030 -0.000119 0.002323 -0.000334 106.381721 71.020836
3 71.020844 -0.000030 -0.000119 0.002323 -0.000334 106.381714 71.020836
[R_front_hand03_02]
2 71.020905 0.000000 0.000030 0.002323 -0.000334 106.381721 71.020905
3 71.020905 0.000000 0.000030 0.002323 -0.000334 106.381714 71.020905
[null_rope01_connect]
2 328.732483 0.000000 -0.000238 -154.483353 -64.791328 -118.914307 328.732483
3 328.732483 0.000000 -0.000238 -154.483337 -64.791321 -118.914307 328.732483
[Rope1_Seg01]
2 -0.000038 -0.000114 0.000096 43.049389 1.212198 -117.806992 0.000154
3 -0.000038 -0.000114 0.000097 43.184399 0.534427 -117.808701 0.000155
[Rope1_Seg02]
2 139.999863 -0.000179 0.000000 -6.483404 3.390590 0.002847 139.999863
3 139.999863 -0.000179 0.000000 -7.580449 3.852462 0.281957 139.999863
[Rope1_Seg03]
2 139.999924 0.000060 -0.000060 -10.950504 4.053505 1.467392 139.999924
3 139.999924 0.000060 -0.000060 -12.018339 4.407447 1.966278 139.999924
[Rope1_Seg04]
2 139.999924 -0.000060 -0.000119 -11.182034 3.749882 1.628312 139.999924
3 139.999924 -0.000060 -0.000119 -12.040049 4.011893 2.220973 139.999924
[Rope1_Seg05]
2 139.999832 0.000119 -0.000060 12.434622 0.408479 -5.513060 139.999832
3 139.999832 0.000119 -0.000060 9.671413 1.191007 -5.478886 139.999832
[Rope1_Seg06]
2 139.999954 0.000119 -0.000060 10.642628 -0.681965 -3.062374 139.999954
3 139.999954 0.000119 -0.000060 9.152817 -0.114928 -3.193230 139.999954
[Rope1_Seg07]
2 139.999985 0.000060 0.000000 4.898622 -0.344347 -1.285306 139.999985
3 139.999985 0.000060 0.000000 4.207294 -0.047330 -1.361088 139.999985
[Rope1_Seg09]
2 121.602913 0.000119 -0.000089 -89.793175 -1.359789 0.847147 121.602913
3 121.602913 0.000119 -0.000089 -89.793175 -1.359789 0.847147 121.602913
[L_mid_hand01]
2 103.859421 1.038730 8.195221 106.855484 -31.239275 -9.461397 104.187431
3 103.859421 1.038730 8.195221 106.855484 -31.239275 -9.461397 104.187431
[L_mid_hand02]
2 105.572853 -4.139662 -10.864139 -142.331345 25.752670 -28.774628 106.211075
3 105.572853 -4.139662 -10.864139 -142.331345 25.752670 -28.774628 106.211075
[L_mid_hand03]
2 104.641464 17.579376 -3.913581 -16.122810 9.734291 34.223598 106.179977
3 104.641464 17.579376 -3.913581 -16.122810 9.734291 34.223598 106.179977
[null_rope02_connect]
2 328.732849 0.000179 -0.000119 -140.208771 68.099220 -35.150631 328.732849
3 328.732849 0.000179 -0.000119 -140.208786 68.099197 -35.150627 328.732849
[Rope2_Seg01]
2 0.000095 0.000153 0.000003 55.997150 2.822141 -52.995781 0.000180
3 0.000095 0.000153 0.000005 50.539478 1.986743 -51.291161 0.000180
[Rope2_Seg02]
2 139.999741 -0.000060 -0.000119 29.926210 -4.837036 -10.287603 139.999756
3 139.999741 -0.000060 -0.000119 34.755795 -5.638087 -12.315523 139.999756
[Rope2_Seg03]
2 140.000107 0.000030 0.000000 15.463931 -9.135626 -4.901777 140.000107
3 140.000107 0.000030 0.000000 16.050369 -12.373734 -5.115630 140.000107
[Rope2_Seg04]
2 139.999802 0.000000 -0.000060 3.044122 0.551274 -2.061754 139.999802
3 139.999802 0.000000 -0.000060 4.057985 1.102959 -3.275569 139.999802
[Rope2_Seg05]
2 139.999985 -0.000060 0.000119 -1.225429 3.685640 -1.072026 139.999985
3 139.999985 -0.000060 0.000119 0.156045 4.933423 -2.392679 139.999985
[Rope2_Seg06]
2 139.999893 -0.000030 -0.000119 0.047574 0.897036 -0.452984 139.999893
3 139.999893 -0.000030 -0.000119 0.665325 1.164176 -0.886822 139.999893
[Rope2_Seg07]
2 139.999893 0.000060 -0.000060 0.099392 0.476697 -0.284778 139.999893
3 139.999893 0.000060 -0.000060 0.488315 0.627156 -0.544652 139.999893
[Rope2_Seg09]
2 121.338966 0.000089 -0.000060 33.793236 -1.359788 -0.847141 121.338966
3 121.338966 0.000089 -0.000060 33.793236 -1.359788 -0.847141 121.338966
[R_mid_hand01]
2 104.680779 11.144459 -10.335981 -41.523792 25.424656 28.595957 105.778534
3 104.680779 11.144459 -10.335981 -41.523792 25.424656 28.595957 105.778534
[R_mid_hand02]
2 104.070427 2.443552 8.231699 72.847389 -32.746803 10.013901 104.424065
3 104.070427 2.443552 8.231699 72.847389 -32.746803 10.013901 104.424065
[R_mid_hand03]
2 106.028137 -11.221827 -5.996406 -167.901306 10.259192 -37.009720 106.788818
3 106.028137 -11.221827 -5.996406 -167.901306 10.259192 -37.009720 106.788818
[spine02]
2 129.756927 0.001550 0.000119 0.360061 -4.044797 -12.915058 129.756927
3 129.756927 0.001550 0.000119 0.360061 -4.044797 -12.915058 129.756927
[spine03]
2 78.613846 0.087372 -4.898873 1.896495 3.831288 16.473049 78.766380
3 78.613846 0.087372 -4.898873 1.896494 3.831287 16.473045 78.766380
[pelvis]
2 169.435242 0.051022 0.000000 -0.060465 -0.180225 14.087929 169.435257
3 169.435242 0.051022 0.000000 -0.060465 -0.180225 14.087930 169.435257
[null_rope03_connect]
2 -1.257226 -2.466202 137.391083 156.329697 -89.381973 -94.430779 137.418976
3 -1.257226 -2.466202 137.391083 156.329987 -89.381348 -94.430771 137.418976
[null_rope04_connect]
2 -1.259640 -2.480268 -137.844437 156.329697 -89.381973 -94.430779 137.872513
3 -1.259640 -2.480268 -137.844437 156.329987 -89.381348 -94.430771 137.872513
[Rope3_Seg01]
2 0.000010 0.000038 -0.000114 -129.172028 21.696926 -70.585938 0.000121
3 0.000010 0.000038 -0.000114 -128.411758 22.937960 -68.675316 0.000121
[Rope3_Seg02]
2 139.999924 -0.000119 0.000060 0.321695 4.523287 5.089322 139.999924
3 139.999924 -0.000119 0.000060 0.323904 5.202610 4.473228 139.999924
[Rope3_Seg03]
2 139.999924 -0.000119 0.000119 0.689533 5.887304 5.754456 139.999924
3 139.999924 -0.000119 0.000119 0.812929 6.751569 5.174179 139.999924
[Rope3_Seg04]
2 139.999924 0.000119 0.000000 2.270117 9.971316 7.682997 139.999924
3 139.999924 0.000119 0.000000 3.017994 12.108138 7.007222 139.999924
[Rope3_Seg05]
2 139.999924 -0.000238 0.000060 -2.396639 -6.671626 0.176068 139.999924
3 139.999924 -0.000238 0.000060 -2.702560 -6.025714 1.967047 139.999924
[Rope3_Seg06]
2 139.999893 -0.000119 -0.000060 -1.512314 -10.507159 -3.311835 139.999893
3 139.999893 -0.000119 -0.000060 -2.309783 -10.522576 -1.330582 139.999893
[Rope3_Seg07]
2 139.999771 0.000060 -0.000119 -0.048418 -3.797806 -0.877554 139.999771
3 139.999771 0.000060 -0.000119 -0.272686 -3.535290 -0.088886 139.999771
[Rope3_Seg08]
2 139.999985 -0.000060 0.000000 0.268159 -2.198200 -0.483307 139.999985
3 139.999985 -0.000060 0.000000 0.130896 -2.045923 -0.035305 139.999985
[Rope3_Seg09]
2 90.185997 -0.000179 -0.000060 89.793228 -1.359877 -0.847183 90.185997
3 90.185997 -0.000179 -0.000060 89.793228 -1.359877 -0.847183 90.185997
[R_rear_hand01]
2 103.366196 -6.073594 -10.757982 -161.551193 16.666374 -30.088671 104.101845
3 103.366196 -6.073594 -10.757982 -161.551193 16.666374 -30.088671 104.101845
[R_rear_hand02]
2 100.509819 12.039542 -7.992327 -34.280552 19.289745 28.875523 101.543350
3 100.509819 12.039542 -7.992327 -34.280552 19.289745 28.875523 101.543350
[R_rear_hand03]
2 101.539970 5.215704 5.435467 83.366440 -30.933914 7.284830 101.819031
3 101.539970 5.215704 5.435467 83.366440 -30.933914 7.284830 101.819031
[Rope4_Seg01]
2 0.000010 0.000038 -0.000114 54.200401 25.919176 -87.055504 0.000121
3 0.000010 0.000038 -0.000114 54.102917 24.536224 -85.920021 0.000121
[Rope4_Seg02]
2 139.999985 0.000060 0.000119 1.063013 -6.557811 -6.051363 139.999985
3 139.999985 0.000060 0.000119 1.438693 -6.295346 -7.081178 139.999985
[Rope4_Seg03]
2 139.999924 0.000000 -0.000238 0.703960 -6.680996 -5.992095 139.999924
3 139.999924 0.000000 -0.000238 0.861313 -6.203334 -6.700740 139.999924
[Rope4_Seg04]
2 139.999985 0.000000 0.000119 0.547821 -9.076877 -7.558614 139.999985
3 139.999985 0.000000 0.000119 0.489146 -7.435820 -7.643422 139.999985
[Rope4_Seg05]
2 139.999802 -0.000060 -0.000119 -0.096759 -3.846994 -3.702144 139.999802
3 139.999802 -0.000060 -0.000119 -0.092064 -3.584932 -3.964634 139.999802
[Rope4_Seg06]
2 139.999924 0.000000 0.000060 0.096105 2.849809 1.211189 139.999924
3 139.999924 0.000000 0.000060 0.082802 0.871919 0.264420 139.999924
[Rope4_Seg07]
2 139.999802 0.000000 0.000000 0.175416 3.056417 1.505460 139.999802
3 139.999802 0.000000 0.000000 0.162800 1.242053 0.720594 139.999802
[Rope4_Seg08]
2 139.999924 0.000000 0.000119 -1.475642 0.924122 0.192556 139.999924
3 139.999924 0.000000 0.000119 -1.487133 0.042917 -0.251151 139.999924
[Rope4_Seg09]
2 90.185791 0.000060 0.000060 -135.617828 2.228885 0.850567 90.185791
3 90.185791 0.000060 0.000060 -135.617828 2.228885 0.850567 90.185791
[L_rear_hand01]
2 101.696655 -8.392275 -7.654577 -34.454281 -18.946800 151.655121 102.329041
3 101.696655 -8.392275 -7.654577 -34.454281 -18.946800 151.655121 102.329041
[L_rear_hand02]
2 102.726799 -1.568258 5.773216 83.407906 30.330435 172.796509 102.900848
3 102.726799 -1.568258 5.773216 83.407906 30.330435 172.796509 102.900848
[L_rear_hand03]
2 104.552910 9.721220 -10.420293 -161.379868 -16.473232 -150.512238 105.519653
3 104.552910 9.721220 -10.420293 -161.379868 -16.473232 -150.512238 105.519653
